<?xml version="1.0" encoding="UTF-8"?>
<svg width="27px" height="30px" viewBox="0 0 27 30" version="1.1" xmlns="http://www.w3.org/2000/svg" xmlns:xlink="http://www.w3.org/1999/xlink">
    <!-- Generator: Sketch 58 (84663) - https://sketch.com -->
    <title>账号</title>
    <desc>Created with Sketch.</desc>
    <g id="页面-1" stroke="none" stroke-width="1" fill="none" fill-rule="evenodd">
        <g id="币币后台管理系统-登录" transform="translate(-517.000000, -348.000000)" fill="#5584FF" fill-rule="nonzero">
            <g id="编组" transform="translate(504.000000, 333.000000)">
                <g id="账号" transform="translate(13.000000, 15.000000)">
                    <path d="M12.7769333,16.53736 C8.16210666,16.53736 4.40402667,12.8321866 4.40402667,8.26856001 C4.40402667,3.70664001 8.16210666,0.00146667 12.7769333,0.00146667 C17.39176,0.00146667 21.14984,3.70493334 21.14984,8.26856001 C21.14984,12.8321867 17.39176,16.53736 12.7769333,16.53736 Z M12.7769333,14.38696 C16.2073334,14.38696 18.9977333,11.63752 18.9977333,8.26856001 C18.9977333,4.89960003 16.20904,2.15186667 12.7752267,2.15186667 C9.34482666,2.15186667 6.55442667,4.8996 6.55442667,8.26856001 C6.55442667,11.63752 9.34311999,14.38696 12.7769333,14.38696 Z M9.978,15.7028 L16.122,15.7028 C21.8427467,15.7028 26.0718667,19.6742133 26.0718667,25.2294133 L26.0718667,25.7670133 C26.0718667,29.0062667 23.7439733,29.4585333 15.7823733,29.4585333 L10.31592,29.4585333 C2.26386666,29.4585333 0.02813334,29.0182133 0.02813334,25.7670133 L0.02813334,25.2294133 C0.02813334,19.6725067 4.25554668,15.7028 9.978,15.7028 Z M9.978,17.8532 C5.41437333,17.8532 2.17853334,20.8910667 2.17853334,25.2294133 L2.17853334,25.7670133 C2.17853334,26.9480266 4.00637334,27.3081333 10.31592,27.3081333 L15.7806667,27.3081333 C21.9775733,27.3081333 23.91976,26.9326667 23.91976,25.7670133 L23.91976,25.2294133 C23.91976,20.8927733 20.68392,17.8532 16.1202933,17.8532 L9.978,17.8532 Z" id="形状"></path>
                </g>
            </g>
        </g>
    </g>
</svg>