<?xml version="1.0" encoding="UTF-8"?>
<svg width="26px" height="31px" viewBox="0 0 26 31" version="1.1" xmlns="http://www.w3.org/2000/svg" xmlns:xlink="http://www.w3.org/1999/xlink">
    <!-- Generator: Sketch 58 (84663) - https://sketch.com -->
    <title>密码</title>
    <desc>Created with Sketch.</desc>
    <g id="页面-1" stroke="none" stroke-width="1" fill="none" fill-rule="evenodd">
        <g id="币币后台管理系统-登录" transform="translate(-518.000000, -440.000000)" fill="#5584FF" fill-rule="nonzero">
            <g id="编组-2" transform="translate(504.000000, 425.000000)">
                <g id="密码" transform="translate(14.000000, 15.000000)">
                    <path d="M21.7701697,28.3641114 L3.57043872,28.3641114 C3.26122093,28.3698324 2.96339712,28.2474543 2.74753767,28.025975 C2.52211339,27.8005507 2.39843744,27.5154915 2.37639939,27.1707973 L2.37639939,15.2308934 C2.37207731,14.9185101 2.50125797,14.6191017 2.73155304,14.4079923 C2.95483395,14.1878189 3.25688432,14.066069 3.57043872,14.0697701 L21.7701697,14.0697701 C22.0837242,14.066069 22.3857745,14.1878189 22.6090555,14.4079923 C22.8393505,14.6191017 22.9685312,14.9185101 22.9642091,15.2308934 L22.9642091,27.1704899 C22.9642091,27.5147742 22.8457509,27.7998335 22.6090555,28.0256676 C22.3858752,28.2460661 22.0838125,28.3680424 21.7701698,28.3644973 L21.7701697,28.3641114 Z M12.6703042,2.35558116 C13.7244701,2.35558116 14.6925649,2.61369195 15.5745886,3.12991353 C16.4501444,3.63973243 17.1784296,4.36801771 17.6882485,5.24357349 C18.2153315,6.13625361 18.4788729,7.1096766 18.4788729,8.16384246 L18.4788729,11.6810759 L6.86204295,11.6810759 L6.86204295,8.16414987 L6.8313033,8.16414987 C6.8313033,7.10998401 7.09484476,6.13656101 7.62192768,5.24388087 C8.13474272,4.36520395 8.86905677,3.63640152 9.75157227,3.13022094 C10.6432277,2.61379442 11.6161384,2.35558116 12.6703042,2.35558116 Z M21.7701697,11.6810759 L20.8987,11.6810759 L20.8987,8.16414987 C20.8987,6.67983351 20.5275697,5.31376242 19.7853091,4.0659366 C19.0585366,2.83342428 18.0244934,1.81050208 16.7841947,1.09709895 C15.5259174,0.36569965 14.1546206,0 12.6703042,0 C11.1859879,0 9.81458859,0.36569965 8.55610635,1.09709895 C7.31546964,1.81037527 6.28109785,2.83330817 5.55406986,4.0659366 C4.81180922,5.3137624 4.4406789,6.67983349 4.4406789,8.16414987 L4.4406789,11.6810759 L3.57043872,11.6810759 C2.58082616,11.6810759 1.74183801,12.0306884 1.05347427,12.7299135 C0.36511053,13.4291386 0.02092866,14.2627986 0.02092866,15.2308934 L0.02092866,27.1704899 C0.02092866,28.1601025 0.36511053,28.9990906 1.05347427,29.6874544 C1.74183801,30.3758181 2.58082616,30.72 3.57043872,30.72 L21.7701697,30.72 C22.7597823,30.72 23.5987705,30.3758181 24.2871342,29.6874544 C24.975498,28.9990906 25.3196798,28.1601025 25.3196798,27.1704899 L25.3196798,15.2308934 C25.3196798,14.2627986 24.975498,13.4291386 24.2871342,12.7299135 C23.5987705,12.0306884 22.7597823,11.6810759 21.7701697,11.6810759 Z" id="形状"></path>
                    <rect id="矩形" x="11.76" y="17.28" width="2.16" height="7.92" rx="1.08"></rect>
                </g>
            </g>
        </g>
    </g>
</svg>