<?xml version="1.0" standalone="no"?><!DOCTYPE svg PUBLIC "-//W3C//DTD SVG 1.1//EN" "http://www.w3.org/Graphics/SVG/1.1/DTD/svg11.dtd"><svg t="1603448853934" class="icon" viewBox="0 0 1024 1024" version="1.1" xmlns="http://www.w3.org/2000/svg" p-id="1715" xmlns:xlink="http://www.w3.org/1999/xlink" width="200" height="200"><defs><style type="text/css"></style></defs><path d="M998.190418 877.688513L753.637761 633.135857l-9.5903-7.991917a402.792611 402.792611 0 0 0 65.533718-219.777714 404.390994 404.390994 0 1 0-183.814088 338.857275c1.598383 3.196767 3.995958 6.393534 7.192725 8.791109l244.552657 245.351848a84.714319 84.714319 0 0 0 59.939376 24.774942 85.513511 85.513511 0 0 0 60.738569-145.452887M405.190186 681.886549a277.319516 277.319516 0 1 1 0-554.639031 277.319516 277.319516 0 0 1 0 554.639031" p-id="1716" fill="#ffffff"></path></svg>