<?xml version="1.0" standalone="no"?><!DOCTYPE svg PUBLIC "-//W3C//DTD SVG 1.1//EN" "http://www.w3.org/Graphics/SVG/1.1/DTD/svg11.dtd"><svg t="1586949919607" class="icon" viewBox="0 0 1092 1024" version="1.1" xmlns="http://www.w3.org/2000/svg" p-id="1355" xmlns:xlink="http://www.w3.org/1999/xlink" width="213.28125" height="200"><defs><style type="text/css"></style></defs><path d="M1013.90336 406.528a34.133333 34.133333 0 0 0 34.133333-34.133333V256.068267a34.133333 34.133333 0 0 0-20.002133-31.197867L538.15296 3.8912a34.133333 34.133333 0 0 0-27.989333 0L20.00896 224.938667A34.133333 34.133333 0 0 0 0.006827 256.136533v116.189867a34.133333 34.133333 0 0 0 34.133333 34.133333h75.229867v346.385067H34.208427a34.133333 34.133333 0 0 0-34.2016 34.133333v164.0448a34.133333 34.133333 0 0 0 34.133333 34.2016h979.7632a34.133333 34.133333 0 0 0 34.133333-34.133333v-164.113067a34.133333 34.133333 0 0 0-34.133333-34.133333H938.673493V406.528h75.229867z m-945.493333-128.341333l455.611733-205.0048 455.68 205.073066v59.938134H68.34176v-59.938134z m613.717333 128.341333v346.3168H366.803627V406.528h315.323733z m-504.4224 0h120.832v346.3168h-120.832V406.528z m801.9968 510.3616H68.34176v-95.709867h911.36v95.709867z m-109.3632-164.0448H749.574827V406.528h120.832v346.3168z" fill="#FFFFFF" p-id="1356"></path></svg>